<?xml version="1.0" encoding="utf-8"?>
<!-- Generator: Adobe Illustrator 16.0.4, SVG Export Plug-In . SVG Version: 6.00 Build 0)  -->
<!DOCTYPE svg PUBLIC "-//W3C//DTD SVG 1.1//EN" "http://www.w3.org/Graphics/SVG/1.1/DTD/svg11.dtd">
<svg version="1.1" id="Layer_1" xmlns="http://www.w3.org/2000/svg" xmlns:xlink="http://www.w3.org/1999/xlink" x="0px" y="0px"
	 width="30.944px" height="38.45px" viewBox="0 0 30.944 38.45" enable-background="new 0 0 30.944 38.45" xml:space="preserve">
<g>
	<path fill="#D13834" d="M17.607,11c-1.401,0.346-2.868,0.346-4.269,0C6.041,9.195-0.069,9.887,0.001,23.648
		c0.037,7.049,6.638,16.189,13.575,14.625c1.245-0.28,2.547-0.28,3.792,0c6.938,1.564,13.539-7.576,13.575-14.625
		C31.013,9.888,24.904,9.195,17.607,11z"/>
	<path fill="#F75B57" d="M3.393,20.132c-0.375,0-0.678-0.304-0.678-0.678c0-3.741,2.739-6.785,6.106-6.785
		c0.375,0,0.678,0.304,0.678,0.679c0,0.375-0.303,0.678-0.678,0.678c-2.618,0-4.749,2.435-4.749,5.428
		C4.072,19.829,3.768,20.132,3.393,20.132z"/>
	<path fill="#4C312C" d="M15.424,13.568c-0.365,0-0.666-0.29-0.677-0.657c-0.091-2.871-1.194-6.475-4.018-7.98
		c-0.331-0.177-0.456-0.587-0.279-0.918c0.177-0.33,0.586-0.457,0.918-0.28C14.702,5.51,16,9.617,16.103,12.868
		c0.012,0.375-0.281,0.688-0.657,0.7C15.438,13.568,15.431,13.568,15.424,13.568z"/>
	<path fill="#994530" d="M15.363,16.006c-1.14,0-2.212-0.445-3.019-1.252c-0.265-0.265-0.265-0.694,0-0.959s0.694-0.266,0.959,0
		c0.551,0.551,1.283,0.854,2.06,0.854s1.509-0.303,2.059-0.854c0.265-0.266,0.694-0.266,0.959,0c0.265,0.264,0.265,0.694,0,0.959
		C17.575,15.562,16.503,16.006,15.363,16.006z"/>
	<path fill="#659C35" d="M14.772,8.847l0.413-2.771c0.436-2.928,2.735-5.227,5.662-5.663L23.62,0l-0.414,2.772
		C22.77,5.7,20.472,7.999,17.544,8.435L14.772,8.847z"/>
</g>
</svg>
