<?xml version="1.0" encoding="utf-8"?>
<!-- Generator: Adobe Illustrator 16.0.4, SVG Export Plug-In . SVG Version: 6.00 Build 0)  -->
<!DOCTYPE svg PUBLIC "-//W3C//DTD SVG 1.1//EN" "http://www.w3.org/Graphics/SVG/1.1/DTD/svg11.dtd">
<svg version="1.1" id="Layer_1" xmlns="http://www.w3.org/2000/svg" xmlns:xlink="http://www.w3.org/1999/xlink" x="0px" y="0px"
	 width="29px" height="19px" viewBox="0 0 29 19" enable-background="new 0 0 29 19" xml:space="preserve">
<path fill="#FFFFFF" d="M9.383,9.184l9.728,1.993l8.148-9.603c0.24-0.288,0.29-0.687,0.127-1.022C27.224,0.214,26.879,0,26.501,0
	H8.362c-0.3,0-0.584,0.136-0.77,0.368C7.406,0.6,7.339,0.904,7.41,1.191L9.383,9.184z"/>
<path fill="#FFFFFF" d="M24.883,10.9c-1.633,0-3.047,0.94-3.712,2.3L7.977,10.41L5.593,0.737C5.487,0.305,5.094,0,4.642,0H0.979
	C0.438,0,0,0.431,0,0.964c0,0.531,0.438,0.963,0.979,0.963h2.893l2.347,9.525c0.088,0.359,0.378,0.637,0.746,0.715l1.659,0.351
	l2.461,5.068c0.163,0.335,0.506,0.548,0.884,0.548c0.377,0,0.721-0.213,0.883-0.548L14.69,13.8l6.079,1.286
	c0.073,2.17,1.89,3.914,4.113,3.914C27.153,19,29,17.183,29,14.95C29,12.716,27.153,10.9,24.883,10.9z M11.969,14.936l-0.926-1.906
	l1.679,0.355L11.969,14.936z M24.883,17.073c-0.991,0-1.828-0.661-2.08-1.558l1.778,0.376c0.069,0.015,0.139,0.021,0.207,0.021
	c0.452,0,0.858-0.31,0.957-0.761c0.114-0.52-0.223-1.032-0.751-1.144l-1.797-0.38c0.396-0.488,1.005-0.801,1.687-0.801
	c1.19,0,2.159,0.953,2.159,2.124S26.073,17.073,24.883,17.073z"/>
</svg>
