<?xml version="1.0" encoding="utf-8"?>
<!-- Generator: Adobe Illustrator 16.0.4, SVG Export Plug-In . SVG Version: 6.00 Build 0)  -->
<!DOCTYPE svg PUBLIC "-//W3C//DTD SVG 1.1//EN" "http://www.w3.org/Graphics/SVG/1.1/DTD/svg11.dtd">
<svg version="1.1" id="Layer_1" xmlns="http://www.w3.org/2000/svg" xmlns:xlink="http://www.w3.org/1999/xlink" x="0px" y="0px"
	 width="32.993px" height="26.011px" viewBox="0 0 32.993 26.011" enable-background="new 0 0 32.993 26.011" xml:space="preserve">
<path fill="#FFFFFF" d="M16.979,15.046c0.083-0.445,0.258-0.872,0.543-1.25c0.225-0.299,0.504-0.544,0.815-0.744
	c-0.036-0.12-0.077-0.239-0.099-0.366c-0.138-0.802,0.069-1.582,0.514-2.208c-0.633-0.459-1.089-1.134-1.227-1.936
	c-0.089-0.519-0.024-1.036,0.157-1.517c0-0.001-0.001-0.001-0.001-0.002c-3.052-2.486-5.606-1.376-6.918-0.693
	c-0.686,0.357-1.183,0.512-1.5,0.583c-0.323,0.029-0.847,0.032-1.616-0.1c-1.473-0.251-4.264-0.532-6.33,2.748
	c-0.701,1.113-0.454,3.283,0.377,5.485H16.979L16.979,15.046z M4.997,8.876c0.957-0.495,1.809,0.892,0.852,1.387
	c-1.441,0.747-1.611,2.11-0.58,3.292c0.69,0.79-0.497,1.934-1.193,1.136C2.377,12.747,2.537,10.149,4.997,8.876z"/>
<path fill="#FFFFFF" d="M4.678,0.104C3.91-0.363,3.322,0.877,4.077,1.337C6.235,2.651,7.829,3.311,8.299,5.84
	c0.159,0.855,1.564,0.725,1.404-0.14C9.65,5.419,9.584,5.161,9.51,4.913C9.062,4.774,8.536,4.411,8.199,3.491
	C8.062,3.117,8.035,2.786,8.094,2.492C7.219,1.606,6.059,0.944,4.678,0.104z"/>
<path fill="#FFFFFF" d="M20.249,15.046c-0.487-0.178-0.914-0.468-1.254-0.838c-0.151-0.165-0.285-0.345-0.397-0.54
	c-0.197,0.143-0.378,0.306-0.526,0.502c-0.202,0.268-0.34,0.564-0.415,0.876h1.197H20.249z"/>
<path fill="#FFFFFF" d="M22.91,15.046c-0.012-0.02-0.02-0.041-0.03-0.062c-0.041,0.021-0.083,0.038-0.123,0.062H22.91z"/>
<path fill="#FFFFFF" d="M22.395,10.652c-0.354,0.209-0.751,0.351-1.174,0.417c-0.174,0.027-0.35,0.04-0.524,0.04
	c-0.489,0-0.948-0.113-1.365-0.3c-0.076,0.104-0.142,0.214-0.2,0.327c-0.222,0.435-0.314,0.934-0.226,1.445
	c0.009,0.054,0.029,0.103,0.042,0.157c0.026,0.106,0.054,0.211,0.093,0.312c0.019,0.048,0.045,0.092,0.067,0.139
	c0.024,0.051,0.046,0.104,0.073,0.152c0.432,0.764,1.271,1.267,2.228,1.267c0.138,0,0.277-0.011,0.414-0.031
	c0.189-0.03,0.369-0.084,0.543-0.15c0.091-0.035,0.178-0.079,0.264-0.124c-0.011-0.049-0.03-0.096-0.04-0.147
	c-0.001-0.008-0.005-0.015-0.006-0.022c-0.034-0.193-0.044-0.386-0.039-0.578c0.015-0.599,0.215-1.178,0.584-1.678
	C22.794,11.539,22.54,11.123,22.395,10.652z"/>
<path fill="#FFFFFF" d="M23.252,14.032c0.006,0.039,0.022,0.074,0.031,0.114c0.007,0.033,0.018,0.066,0.026,0.099
	c0.019,0.069,0.032,0.144,0.057,0.211c0.015,0.039,0.038,0.074,0.054,0.113c0.027,0.062,0.056,0.123,0.087,0.182
	c0.056,0.104,0.121,0.201,0.191,0.295h1.779h0.542h0.49h1.316c0.032-0.042,0.053-0.091,0.083-0.135
	c-0.752-0.454-1.3-1.195-1.454-2.089c-0.007-0.043-0.003-0.086-0.009-0.13c-0.15,0.045-0.3,0.091-0.458,0.116
	c-0.173,0.028-0.35,0.041-0.524,0.041c-0.312,0-0.608-0.053-0.894-0.131c-0.111-0.031-0.221-0.062-0.326-0.103
	c-0.109-0.042-0.215-0.09-0.318-0.144c-0.097-0.05-0.187-0.107-0.277-0.166c-0.324,0.463-0.463,1.005-0.41,1.557
	C23.246,13.917,23.242,13.975,23.252,14.032z"/>
<path fill="#FFFFFF" d="M22.303,9.258c0.116-0.625,0.433-1.195,0.896-1.637c-0.217-1.156-1.26-1.993-2.495-1.993
	c-0.138,0-0.277,0.011-0.414,0.032c-0.67,0.104-1.257,0.452-1.653,0.976c-0.226,0.3-0.365,0.639-0.43,0.992
	c-0.049,0.266-0.061,0.539-0.013,0.812c0.095,0.551,0.382,1.027,0.783,1.382c0.067,0.059,0.138,0.112,0.21,0.165
	c0.094,0.066,0.189,0.128,0.292,0.182c0.111,0.058,0.224,0.111,0.344,0.152c0.273,0.096,0.568,0.148,0.875,0.148
	c0.137,0,0.277-0.011,0.414-0.032c0.428-0.067,0.815-0.242,1.146-0.489c0-0.012,0-0.024,0-0.037
	c-0.004-0.11-0.003-0.218,0.005-0.326C22.27,9.473,22.284,9.365,22.303,9.258z"/>
<path fill="#FFFFFF" d="M23.813,11.625c0.024,0.02,0.052,0.035,0.076,0.053c0.066,0.05,0.136,0.097,0.208,0.142
	c0.055,0.033,0.111,0.064,0.169,0.094c0.111,0.058,0.227,0.109,0.348,0.15c0.267,0.089,0.553,0.142,0.852,0.142
	c0.138,0,0.277-0.011,0.415-0.032c0.197-0.031,0.383-0.089,0.564-0.16c0.024-0.224,0.075-0.442,0.15-0.657
	c0.035-0.098,0.06-0.199,0.105-0.294c0.049-0.103,0.119-0.198,0.18-0.295c0.047-0.075,0.084-0.155,0.138-0.227
	c0.264-0.351,0.6-0.634,0.979-0.847c-0.004-0.1-0.003-0.2-0.02-0.3c-0.145-0.843-0.732-1.514-1.511-1.83
	c0.028-0.104,0.061-0.205,0.095-0.306c0.035-0.105,0.073-0.208,0.113-0.309c0.711-1.768,2.275-3.037,3.972-4.046
	c0.7-0.416,0.167-1.547-0.543-1.124c-2.096,1.247-3.907,2.767-4.715,4.951c-0.04,0.109-0.076,0.222-0.111,0.336
	c-0.034,0.106-0.066,0.213-0.094,0.323c-0.042,0.004-0.084,0.003-0.125,0.009c-0.443,0.069-0.832,0.252-1.16,0.501
	c-0.118,0.09-0.227,0.188-0.326,0.295c-0.336,0.365-0.555,0.819-0.616,1.314c-0.01,0.084-0.021,0.167-0.022,0.253
	c0,0.04,0.006,0.081,0.008,0.121c0.004,0.098,0.002,0.197,0.019,0.296c0.002,0.01,0.006,0.019,0.008,0.03
	c0.005,0.031,0.017,0.06,0.024,0.091c0.095,0.418,0.297,0.792,0.58,1.095C23.649,11.475,23.727,11.555,23.813,11.625z"/>
<path fill="#FFFFFF" d="M28.487,14.481c0.1,0.049,0.202,0.093,0.31,0.128c0.261,0.086,0.54,0.137,0.831,0.137
	c0.138,0,0.278-0.011,0.414-0.032c0.67-0.104,1.257-0.452,1.653-0.976c0.396-0.525,0.554-1.166,0.444-1.803
	c-0.202-1.175-1.255-2.028-2.504-2.028c-0.138,0-0.277,0.011-0.414,0.033c-0.197,0.03-0.383,0.088-0.563,0.159
	c-0.125,0.049-0.25,0.103-0.365,0.17c-0.162,0.096-0.309,0.213-0.445,0.342c-0.099,0.095-0.196,0.193-0.279,0.303
	c-0.034,0.045-0.056,0.096-0.086,0.142c-0.061,0.094-0.124,0.187-0.171,0.286c-0.024,0.051-0.037,0.105-0.057,0.159
	c-0.02,0.05-0.039,0.1-0.055,0.151c-0.036,0.121-0.06,0.241-0.078,0.366c-0.018,0.132-0.024,0.265-0.019,0.399
	c0.004,0.101,0.003,0.201,0.021,0.302c0.115,0.674,0.517,1.234,1.069,1.595C28.286,14.378,28.384,14.433,28.487,14.481z"/>
<path fill="#FFFFFF" d="M28.149,5.863c-1.896,3.127,3.371,3.455,4.844,2.128C32.993,7.991,30.047,2.735,28.149,5.863z"/>
<path fill="#FFFFFF" d="M16.019,26.011c8.847,0,16.018-2.006,16.018-10.43h-3.808h-0.445h-0.525h-0.338H26.52h-0.413h-1.854h-0.514
	h-0.395H23.27h-0.265H22.67h-0.529h-0.417h-0.388h-2.602h-1.133h-0.336h-0.338H1.908H0C0,24.005,7.172,26.011,16.019,26.011z"/>
<path fill="#FFFFFF" d="M12.789,1.832c-0.381-0.055-1.086-0.142-1.814-0.142c-1.151,0-1.915,0.209-2.21,0.605
	C8.595,2.521,8.58,2.826,8.702,3.214c0.011,0.034,0.016,0.064,0.029,0.1c0.131,0.359,0.298,0.631,0.498,0.821
	c0.223,0.213,0.485,0.324,0.789,0.324C11.066,4.458,12.371,3.196,12.789,1.832z"/>
</svg>
