<?xml version="1.0" encoding="utf-8"?>
<!-- Generator: Adobe Illustrator 16.0.4, SVG Export Plug-In . SVG Version: 6.00 Build 0)  -->
<!DOCTYPE svg PUBLIC "-//W3C//DTD SVG 1.1//EN" "http://www.w3.org/Graphics/SVG/1.1/DTD/svg11.dtd">
<svg version="1.1" id="Layer_1" xmlns="http://www.w3.org/2000/svg" xmlns:xlink="http://www.w3.org/1999/xlink" x="0px" y="0px"
	 width="275.139px" height="53.457px" viewBox="0 0 275.139 53.457" enable-background="new 0 0 275.139 53.457"
	 xml:space="preserve">
<g>
	<path fill="#FFFFFF" d="M47.326,7.543c-0.49,8.064-0.264,17.947-0.565,26.011c0.339,1.666,2.677,2.84,3.318,0.72
		c-0.151-3.976-0.528-19.954-0.641-23.967c2.941,0.189,5.467,0.038,8.295-0.151c-0.038,3.483,0.452,19.916,0.377,23.399
		c0.339,1.666,2.677,2.84,3.318,0.72c-0.604-9.011-0.038-17.644-1.207-26.731H47.326z"/>
	<path fill="#FFFFFF" d="M58.783,37.909c6.75-0.303,7.503-8.519,7.768-13.706c0.113-2.083-0.151-4.657,0.226-6.778
		c1.772-0.227,2.451,0.038,5.204-0.417c0.151,5.566-0.113,11.169,0.038,16.811c0.339,1.628,2.602,2.726,3.243,0.682
		c-0.415-6.399-0.339-12.987-0.377-19.499c-2.941,0.151-9.578-0.265-10.332,0.605c-0.754,0.833-0.302,3.635-0.339,4.809
		c-0.188,4.733,0.792,15.562-6.033,15.902L58.783,37.909z"/>
	<path fill="#FFFFFF" d="M78.875,15.987c-2.79,3.445-4.751,11.889-1.999,16.167c1.094,1.704,3.771,3.256,5.769,3.483
		c2.64,0.265,5.317-3.029,5.92-4.998c1.923-6.285,0.528-12.911-4.487-15.107C82.42,14.624,79.969,14.662,78.875,15.987z
		 M81.817,16.857c5.467,0.644,6.75,9.655,3.092,14.464c-2.866,3.786-6.75-0.379-6.674-4.165
		C78.159,24.847,79.026,17.161,81.817,16.857z"/>
	<path fill="#FFFFFF" d="M91.502,38.288c0.264-1.325,0.566-2.613,0.83-3.938v-0.038c4.751,0.265,9.087,0.682,13.838,0.947
		c0.227,1.211,0.453,2.423,0.792,3.597l1.659,0.378c0.264-2.423-0.151-3.938-0.038-7.194c-0.377,0.038-2.489,0-2.866,0.038
		c-0.227-5.036-0.264-11.548-0.49-16.546c-3.507-0.568-5.656-0.303-11.161-0.605c0.188,3.218,0.49,8.216-0.151,11.434
		c-0.415,2.045-1.282,3.9-1.886,5.831c-0.415,0.038-1.96-0.076-2.375-0.038c-0.339,2.234,0.151,4.127,0.188,5.755L91.502,38.288z
		 M94.972,31.321c2.111-4.316,1.961-9.39,2.187-14.047c1.999,0.189,4.035,0.189,6.071,0.303c-0.227,4.846-0.49,9.692-0.716,14.539
		c-2.715,0.038-5.354,0-8.069,0.038C94.67,31.851,94.858,31.548,94.972,31.321z"/>
	<path fill="#FFFFFF" d="M111.971,15.987c-2.79,3.445-4.751,11.889-1.999,16.167c1.094,1.704,3.771,3.256,5.77,3.483
		c2.639,0.265,5.316-3.029,5.92-4.998c1.923-6.285,0.528-12.911-4.487-15.107C115.515,14.624,113.064,14.662,111.971,15.987z
		 M114.912,16.857c5.467,0.644,6.75,9.655,3.092,14.464c-2.866,3.786-6.75-0.379-6.674-4.165
		C111.254,24.847,112.122,17.161,114.912,16.857z"/>
	<path fill="#FFFFFF" d="M124.371,15.608c-0.113,2.461-0.227,4.96-0.339,7.421v0.038c-0.188,3.446-0.339,6.891-0.49,10.336
		c2.903,3.143,11.161,3.067,13.122-1.325c1.395-3.143,0.867-6.702-2.149-8.746c1.81-1.136,2.677-6.815,0.302-8.064
		c-2.263-1.212-4.11-0.871-6.448-0.606L124.371,15.608z M126.445,24.884c2.187-0.341,2.752-0.492,6.335-0.417
		c6.033,4.354-1.546,9.996-5.996,7.914L126.445,24.884z M126.068,17.274c2.677-0.113,6.674-1.552,7.391,0.568
		c-0.641,6.058-4.412,4.657-7.127,5.112C126.256,21.363,126.143,18.864,126.068,17.274z"/>
	<path fill="#FFFFFF" d="M139.222,15.835c-0.377,5.642,0.302,12.343,0.113,18.022c-0.075,0.909,5.43,1.477,7.278,1.06
		c9.238-2.12,4.638-15.296-5.091-12.305c-0.226-2.121-0.452-4.241-0.641-6.399L139.222,15.835z M141.823,24.884
		c10.256-1.817,8.597,10.64-0.302,7.421L141.823,24.884z M153.324,15.722c-0.452,5.793-0.226,11.586-0.49,17.379
		c0.339,1.666,2.677,2.84,3.318,0.719c-0.339-5.906-0.641-11.851-1.169-17.719L153.324,15.722z"/>
	<path fill="#FFFFFF" d="M161.574,31.51c1.999-3.559,5.807-7.989,8.484-11.056c-0.188,3.521-0.339,9.238-0.49,12.722
		c0.339,1.666,2.677,2.84,3.318,0.719c-0.226-4.657-0.49-10.601-0.716-15.221c-0.113-2.991-0.528-3.218-2.338-2.839
		c-2.036,3.71-5.958,8.178-8.446,11.889c-0.49-5.338-0.038-7.913-0.83-12.116l-1.697,0.303c-0.188,5.263-0.302,11.169-0.528,16.546
		c0.339,1.666,2.677,2.84,3.318,0.719C161.612,32.646,161.574,32.078,161.574,31.51z M161.688,11.595
		c2.413,0.53,4.826,0.568,7.24,0.341c1.923-1.061,0.641-2.688-1.094-2.802c-1.923,1.249-3.733,1.628-6.41,1.287L161.688,11.595z"/>
	<path fill="#FFFFFF" d="M205.152,38.553c0.264-1.931-0.113-5.111,0.151-7.004c-1.244-0.114-1.319-0.076-2.413-0.189
		c-0.226-6.664-0.603-16.47-0.83-23.172c-2.941-0.038-8.56-0.038-11.463,0.189c-0.226,7.648,0.566,16.395-2.828,23.323
		c-0.075,0-2.338,0.038-2.413,0.038c-0.113,1.894,0.227,4.733,0.716,7.119l1.584,0.151c0.264-1.855,0.565-3.673,0.83-4.657
		c4.562-0.227,9.276-0.378,13.876,0c0.604,1.287,0.98,2.613,1.131,3.824L205.152,38.553z M190.749,31.473
		c2.828-7.081,2.3-13.668,2.828-21.014c2.225-0.114,3.997-0.379,6.146-0.189c-0.226,6.891,0.076,14.312-0.151,21.203
		C196.668,31.7,193.728,31.473,190.749,31.473z"/>
	<path fill="#FFFFFF" d="M205.899,17.161c-0.415,3.483-1.96,13.328,1.357,15.978c1.659,1.287,4.864,1.666,6.825,1.855
		c6.373,0.568,7.202-3.559,7.692-9.087c0.679-6.929,0.83-17.72-8.333-19.159c-2.866-0.113-6.448,1.477-6.863,4.96L205.899,17.161z
		 M214.346,9.929c6.033,1.06,7.956,22.225-0.15,22.642c-7.127,0.379-5.958-5.036-5.92-11.131
		C208.313,17.388,207.785,8.414,214.346,9.929z"/>
	<path fill="#FFFFFF" d="M250.538,34.577c-1.772-8.633-3.28-17.757-5.43-26.125c-1.546-0.151-2.375-0.265-3.695-0.341
		c-1.357,3.673-2.677,10.867-4.562,15.562c-0.792-2.083-3.582-14.956-4.713-15.145c-0.792-0.114-2.3-0.455-3.771-0.227
		c-0.716,8.822-3.846,17.151-4.939,26.049l2.3,0.227c1.245-4.392,4.525-16.356,5.128-21.809c0.867,3.976,4.035,12.949,4.11,14.917
		c0.83,0,2.791,0.303,3.695,0.189c1.583-4.505,2.526-9.806,4.676-14.88c1.885,7.27,3.167,14.009,4.412,21.847L250.538,34.577z"/>
	<g>
		<path fill="#69AC44" d="M253.847,18.423c-1.54-1.289-2.161,0.58-1.284,1.869C253.976,21.366,254.767,19.755,253.847,18.423z"/>
		<path fill="#69AC44" d="M256.543,9.572c-0.15,5.371-0.321,10.72-0.471,16.09c0.192,0.945,1.519,1.611,1.882,0.408
			c-0.064-1.826-0.107-3.652-0.149-5.457c1.733,1.031,4.493,0.73,5.306-1.418c0.792-2.062,1.198-5.542-0.043-7.497
			c-1.134-1.869-3.23-2.729-5.562-1.268c-0.021-0.215-0.021-0.43-0.021-0.645L256.543,9.572z M257.677,11.807
			c0.299-0.881,3.017-1.053,3.616-0.473c1.519,1.396,1.048,5.048,0.406,6.853c-0.728,2.084-3.273,1.783-3.958,0.387L257.677,11.807z
			"/>
		<path fill="#69AC44" d="M269.871,26.458c0.086-2.814,0.128-2.964,0.214-5.736c1.391,0.193,3.209-0.709,4.065-1.848
			c2.011-2.621-0.535-9.022-3.744-8.829c-0.043-1.461,0.042-2.148,0.128-3.631c-0.407-0.215-1.07-0.344-1.519,0
			c-0.085,1.59-0.128,2.105-0.064,3.566c-3.294,0.021-4.942,3.458-4.878,6.466c0.064,2.535,1.776,4.232,4.643,4.232
			c0,2.729-0.043,2.814,0.085,5.585L269.871,26.458z M268.716,19.325c-5.285,0.924-3.766-8.808,0.214-8.077
			C269.25,13.912,268.737,16.554,268.716,19.325z M270.341,11.463c3.081,0.193,5.135,8.077-0.256,7.905L270.341,11.463z"/>
	</g>
	<path fill="#FFFFFF" d="M47.59,48.626c0-0.565,0.084-1.139,0.252-1.721c0.167-0.582,0.404-1.006,0.708-1.273s0.703-0.4,1.195-0.4
		c0.355,0,0.639,0.104,0.85,0.312s0.328,0.503,0.352,0.887l1.037-0.148c-0.039-0.585-0.25-1.046-0.635-1.383
		s-0.907-0.504-1.567-0.504c-0.68,0-1.253,0.161-1.719,0.484c-0.467,0.322-0.842,0.824-1.125,1.504
		c-0.283,0.681-0.424,1.417-0.424,2.208c0,0.78,0.201,1.385,0.604,1.816c0.402,0.431,0.978,0.646,1.728,0.646
		c1.281,0,2.158-0.639,2.63-1.917l-0.914-0.291c-0.328,0.91-0.893,1.365-1.693,1.365C48.016,50.211,47.59,49.683,47.59,48.626
		L47.59,48.626z"/>
	<path fill="#FFFFFF" d="M61.059,50.899l0.082-0.665c-0.129,0.028-0.247,0.042-0.352,0.042c-0.316,0-0.475-0.145-0.475-0.433
		c0-0.158,0.021-0.333,0.064-0.522l0.434-2.243c0.074-0.368,0.111-0.679,0.111-0.932c0-0.534-0.194-0.959-0.583-1.276
		c-0.389-0.316-0.917-0.475-1.584-0.475c-0.734,0-1.319,0.132-1.755,0.395c-0.435,0.263-0.741,0.686-0.917,1.267l1.042,0.172
		c0.105-0.344,0.278-0.601,0.516-0.769c0.238-0.168,0.59-0.252,1.055-0.252c0.367,0,0.654,0.086,0.861,0.258
		c0.207,0.172,0.311,0.438,0.311,0.798c0,0.115-0.038,0.366-0.112,0.753l-1.359,0.018c-1.132,0.016-1.958,0.211-2.475,0.587
		c-0.518,0.376-0.776,0.93-0.776,1.662c0,0.515,0.171,0.938,0.513,1.27c0.342,0.333,0.786,0.499,1.333,0.499
		c0.492,0,0.912-0.1,1.259-0.299c0.348-0.2,0.683-0.549,1.008-1.048h0.035l-0.029,0.38c0,0.301,0.083,0.527,0.249,0.68
		c0.167,0.152,0.431,0.229,0.794,0.229C60.551,50.994,60.801,50.962,61.059,50.899L61.059,50.899z M59.459,48.496
		c-0.062,0.305-0.193,0.589-0.392,0.854s-0.451,0.48-0.756,0.644s-0.646,0.246-1.025,0.246c-0.3,0-0.546-0.093-0.735-0.279
		s-0.284-0.427-0.284-0.724c0-0.245,0.042-0.454,0.125-0.626c0.084-0.172,0.199-0.314,0.346-0.427s0.353-0.206,0.618-0.279
		c0.266-0.073,0.631-0.116,1.096-0.127l1.166-0.023L59.459,48.496z"/>
	<path fill="#FFFFFF" d="M67.321,50.935h1.054l0.557-2.878c0.097,0,0.224-0.014,0.38-0.042c0.156-0.027,0.266-0.055,0.328-0.083
		l1.089,3.003h1.09l-1.376-3.478c0.207-0.143,0.531-0.481,0.972-1.015l1.582-1.929h-1.125c-1.054,1.306-1.656,2.042-1.804,2.211
		c-0.148,0.168-0.277,0.295-0.387,0.383c-0.109,0.087-0.21,0.145-0.305,0.175c-0.094,0.03-0.197,0.044-0.311,0.044l0.539-2.813
		h-1.054l-0.539,2.813c-0.172,0-0.309-0.034-0.41-0.104c-0.102-0.069-0.204-0.189-0.308-0.359c-0.104-0.17-0.251-0.48-0.442-0.932
		l-0.592-1.418h-1.025l0.885,1.964c0.2,0.451,0.373,0.752,0.521,0.902l-2.765,3.555h1.171l2.25-2.997
		c0.167,0.079,0.361,0.119,0.58,0.119L67.321,50.935z"/>
	<path fill="#FFFFFF" d="M81.411,47.95c0.094-0.396,0.141-0.801,0.141-1.217c0-0.744-0.223-1.319-0.667-1.727
		c-0.446-0.408-1.068-0.611-1.869-0.611c-0.628,0-1.195,0.175-1.699,0.525s-0.894,0.841-1.172,1.472
		c-0.277,0.631-0.416,1.344-0.416,2.14c0,0.799,0.218,1.419,0.653,1.86c0.436,0.441,1.046,0.662,1.831,0.662
		c0.625,0,1.157-0.119,1.597-0.356c0.439-0.237,0.802-0.615,1.087-1.133l-0.809-0.374c-0.172,0.328-0.412,0.587-0.721,0.777
		s-0.652,0.285-1.031,0.285c-0.523,0-0.915-0.141-1.174-0.421c-0.26-0.281-0.39-0.685-0.39-1.211
		c0.012-0.309,0.029-0.532,0.053-0.67H81.411z M76.964,47.13c0.144-0.621,0.396-1.101,0.752-1.439
		c0.358-0.338,0.798-0.507,1.322-0.507c0.472,0,0.834,0.13,1.086,0.392c0.251,0.261,0.378,0.637,0.378,1.127l-0.024,0.427H76.964z"
		/>
	<path fill="#FFFFFF" d="M86.186,44.513l-1.23,6.421h1.054l0.557-2.926h2.83l-0.557,2.926h1.054l1.23-6.421H90.07l-0.521,2.718
		h-2.83l0.521-2.718H86.186z"/>
	<path fill="#FFFFFF" d="M95.506,44.513l-0.744,3.875c-0.082,0.396-0.123,0.72-0.123,0.973c0,0.546,0.146,0.963,0.437,1.252
		c0.291,0.289,0.726,0.433,1.304,0.433c0.449,0,0.836-0.088,1.163-0.264c0.326-0.176,0.651-0.491,0.976-0.946h0.018
		c-0.028,0.162-0.062,0.375-0.103,0.638c-0.041,0.263-0.061,0.417-0.061,0.46h0.873l-0.469,2.421h0.955l0.615-3.199h-0.861
		l1.083-5.644h-1.054l-0.691,3.597c-0.125,0.649-0.375,1.163-0.75,1.543s-0.809,0.57-1.301,0.57c-0.699,0-1.048-0.331-1.048-0.991
		c0-0.245,0.035-0.542,0.105-0.89l0.738-3.828H95.506z"/>
	<path fill="#FFFFFF" d="M111.096,50.935l1.23-6.421h-1.054l-1.23,6.421H111.096z M108.697,47.665
		c-0.432-0.289-1.071-0.433-1.918-0.433H105.7l0.521-2.718h-1.054l-1.207,6.297c0.801,0.162,1.643,0.243,2.525,0.243
		c0.941,0,1.653-0.18,2.136-0.54c0.482-0.36,0.723-0.882,0.723-1.566C109.344,48.381,109.128,47.954,108.697,47.665z
		 M105.554,47.997h1.166c0.516,0,0.895,0.085,1.14,0.255c0.244,0.17,0.366,0.43,0.366,0.778c0,0.427-0.152,0.74-0.457,0.938
		s-0.72,0.297-1.248,0.297c-0.453,0-0.914-0.04-1.382-0.119L105.554,47.997z"/>
	<path fill="#FFFFFF" d="M122.848,44.513l-1.23,6.421h1.054l1.078-5.644h2.836l-1.078,5.644h1.055l1.23-6.421H122.848z"/>
	<path fill="#FFFFFF" d="M136.07,50.935l1.23-6.421h-3.96c-0.699,2.133-1.166,3.506-1.4,4.122c-0.234,0.615-0.434,1.041-0.598,1.276
		c-0.164,0.235-0.345,0.353-0.544,0.353c-0.141,0-0.275-0.03-0.405-0.089l-0.187,0.771c0.172,0.071,0.391,0.106,0.656,0.106
		c0.339,0,0.618-0.07,0.834-0.21c0.217-0.141,0.421-0.373,0.612-0.697c0.191-0.325,0.412-0.813,0.662-1.466s0.639-1.783,1.166-3.389
		h1.951l-1.078,5.644H136.07z"/>
	<path fill="#FFFFFF" d="M145.947,45.05c-0.433-0.433-1.06-0.65-1.88-0.65c-0.714,0-1.314,0.16-1.798,0.481
		c-0.484,0.32-0.863,0.793-1.136,1.418c-0.273,0.625-0.418,1.341-0.434,2.148c0,0.803,0.222,1.438,0.667,1.905
		c0.446,0.467,1.051,0.7,1.816,0.7c0.539,0,1.019-0.096,1.441-0.288s0.778-0.481,1.069-0.867c0.291-0.386,0.514-0.856,0.67-1.412
		c0.156-0.556,0.234-1.091,0.234-1.605C146.598,46.094,146.381,45.483,145.947,45.05z M145.306,48.306
		c-0.115,0.451-0.265,0.822-0.448,1.113c-0.184,0.291-0.398,0.504-0.642,0.641c-0.244,0.136-0.567,0.205-0.969,0.205
		c-0.477,0-0.84-0.153-1.089-0.46c-0.25-0.307-0.375-0.753-0.375-1.338c0-0.522,0.088-1.062,0.264-1.62
		c0.176-0.558,0.423-0.975,0.741-1.25c0.318-0.275,0.741-0.412,1.269-0.412c0.968,0,1.453,0.565,1.453,1.697
		C145.488,47.38,145.421,47.854,145.306,48.306z"/>
	<path fill="#FFFFFF" d="M154.703,50.229c0.514-0.55,0.881-1.398,1.104-2.546c0.125-0.74,0.188-1.397,0.188-1.971
		c0-1.199-0.251-2.097-0.753-2.694c-0.501-0.597-1.231-0.896-2.188-0.896c-0.379,0-0.738,0.065-1.078,0.196l0.246,0.73
		c0.278-0.111,0.561-0.166,0.85-0.166c0.628,0,1.113,0.208,1.453,0.626c0.339,0.417,0.51,1.014,0.51,1.79l-0.018,0.433
		c-0.183-0.265-0.448-0.478-0.793-0.638c-0.346-0.16-0.714-0.24-1.104-0.24c-0.59,0-1.109,0.154-1.559,0.463
		s-0.799,0.753-1.051,1.333c-0.252,0.58-0.378,1.184-0.378,1.813c0,0.791,0.221,1.421,0.662,1.89s1.051,0.703,1.828,0.703
		C153.496,51.053,154.189,50.778,154.703,50.229z M151.578,49.834c-0.246-0.287-0.369-0.7-0.369-1.238
		c0-0.471,0.081-0.962,0.244-1.475c0.162-0.512,0.39-0.89,0.685-1.133c0.295-0.244,0.677-0.365,1.146-0.365
		c0.996,0,1.494,0.526,1.494,1.579c0,0.376-0.074,0.847-0.223,1.413s-0.378,0.982-0.688,1.249c-0.311,0.267-0.708,0.401-1.192,0.401
		C152.189,50.264,151.824,50.121,151.578,49.834z"/>
	<path fill="#FFFFFF" d="M164.771,45.05c-0.433-0.433-1.06-0.65-1.88-0.65c-0.714,0-1.314,0.16-1.798,0.481
		c-0.484,0.32-0.863,0.793-1.136,1.418c-0.273,0.625-0.418,1.341-0.434,2.148c0,0.803,0.223,1.438,0.668,1.905s1.051,0.7,1.816,0.7
		c0.539,0,1.019-0.096,1.441-0.288s0.778-0.481,1.069-0.867c0.291-0.386,0.515-0.856,0.671-1.412
		c0.156-0.556,0.234-1.091,0.234-1.605C165.421,46.094,165.204,45.483,164.771,45.05z M164.129,48.306
		c-0.115,0.451-0.264,0.822-0.448,1.113c-0.184,0.291-0.398,0.504-0.642,0.641c-0.244,0.136-0.567,0.205-0.969,0.205
		c-0.477,0-0.84-0.153-1.09-0.46s-0.375-0.753-0.375-1.338c0-0.522,0.088-1.062,0.264-1.62c0.176-0.558,0.423-0.975,0.741-1.25
		c0.318-0.275,0.741-0.412,1.269-0.412c0.968,0,1.453,0.565,1.453,1.697C164.312,47.38,164.244,47.854,164.129,48.306z"/>
	<path fill="#FFFFFF" d="M173.907,44.846c-0.374-0.261-0.903-0.392-1.59-0.392c-0.817,0-1.452,0.221-1.907,0.665
		c-0.455,0.443-0.769,1.118-0.94,2.024l-0.68,3.667c0.801,0.162,1.641,0.243,2.519,0.243c0.91,0,1.614-0.176,2.112-0.528
		c0.498-0.353,0.747-0.861,0.747-1.525c0-0.368-0.119-0.676-0.357-0.923s-0.557-0.403-0.955-0.466l0.006-0.042
		c0.512-0.087,0.907-0.272,1.187-0.555c0.279-0.283,0.419-0.638,0.419-1.065C174.467,45.475,174.28,45.107,173.907,44.846z
		 M170.377,47.997h1.166c0.52,0,0.9,0.093,1.143,0.279s0.363,0.437,0.363,0.754c0,0.427-0.152,0.74-0.457,0.938
		s-0.721,0.297-1.248,0.297c-0.453,0-0.913-0.04-1.382-0.119L170.377,47.997z M170.524,47.226l0.047-0.244
		c0.109-0.569,0.297-1.001,0.562-1.293c0.266-0.293,0.642-0.439,1.13-0.439c0.359,0,0.629,0.075,0.809,0.226
		c0.18,0.15,0.27,0.354,0.27,0.611c0,0.76-0.555,1.14-1.664,1.14H170.524z"/>
	<path fill="#FFFFFF" d="M184.941,50.935l1.23-6.421h-1.054l-1.23,6.421H184.941z M182.542,47.665
		c-0.432-0.289-1.071-0.433-1.918-0.433h-1.078l0.521-2.718h-1.055l-1.207,6.297c0.801,0.162,1.643,0.243,2.525,0.243
		c0.941,0,1.653-0.18,2.135-0.54c0.482-0.36,0.724-0.882,0.724-1.566C183.19,48.381,182.974,47.954,182.542,47.665z M179.399,47.997
		h1.166c0.516,0,0.896,0.085,1.139,0.255c0.244,0.17,0.367,0.43,0.367,0.778c0,0.427-0.152,0.74-0.457,0.938
		s-0.721,0.297-1.248,0.297c-0.453,0-0.914-0.04-1.383-0.119L179.399,47.997z"/>
	<path fill="#FFFFFF" d="M194.42,50.935l-1.646-3.312l2.748-3.11h-1.207l-2.05,2.499l-1.131-2.499h-1.107l1.546,3.122l-2.882,3.3
		h1.166l2.226-2.635l1.225,2.635H194.42z"/>
	<path fill="#FFFFFF" d="M208.988,50.229c0.513-0.55,0.881-1.398,1.104-2.546c0.125-0.74,0.188-1.397,0.188-1.971
		c0-1.199-0.251-2.097-0.753-2.694c-0.501-0.597-1.231-0.896-2.188-0.896c-0.379,0-0.738,0.065-1.078,0.196l0.246,0.73
		c0.277-0.111,0.56-0.166,0.85-0.166c0.628,0,1.113,0.208,1.452,0.626c0.34,0.417,0.51,1.014,0.51,1.79l-0.018,0.433
		c-0.184-0.265-0.448-0.478-0.793-0.638s-0.714-0.24-1.104-0.24c-0.589,0-1.109,0.154-1.558,0.463s-0.8,0.753-1.052,1.333
		s-0.378,1.184-0.378,1.813c0,0.791,0.221,1.421,0.662,1.89s1.051,0.703,1.828,0.703C207.78,51.053,208.474,50.778,208.988,50.229z
		 M205.862,49.834c-0.246-0.287-0.369-0.7-0.369-1.238c0-0.471,0.081-0.962,0.243-1.475s0.391-0.89,0.685-1.133
		c0.295-0.244,0.677-0.365,1.146-0.365c0.996,0,1.494,0.526,1.494,1.579c0,0.376-0.074,0.847-0.223,1.413
		c-0.149,0.566-0.378,0.982-0.688,1.249c-0.311,0.267-0.708,0.401-1.192,0.401C206.474,50.264,206.108,50.121,205.862,49.834z"/>
	<path fill="#FFFFFF" d="M219.5,47.95c0.094-0.396,0.141-0.801,0.141-1.217c0-0.744-0.222-1.319-0.668-1.727
		c-0.445-0.408-1.068-0.611-1.869-0.611c-0.629,0-1.195,0.175-1.699,0.525c-0.504,0.35-0.895,0.841-1.172,1.472
		c-0.277,0.631-0.416,1.344-0.416,2.14c0,0.799,0.218,1.419,0.653,1.86c0.436,0.441,1.046,0.662,1.831,0.662
		c0.625,0,1.158-0.119,1.597-0.356c0.439-0.237,0.801-0.615,1.086-1.133l-0.809-0.374c-0.171,0.328-0.412,0.587-0.72,0.777
		s-0.652,0.285-1.031,0.285c-0.524,0-0.915-0.141-1.175-0.421c-0.26-0.281-0.39-0.685-0.39-1.211
		c0.012-0.309,0.029-0.532,0.053-0.67H219.5z M215.054,47.13c0.145-0.621,0.395-1.101,0.753-1.439
		c0.357-0.338,0.797-0.507,1.321-0.507c0.473,0,0.835,0.13,1.087,0.392s0.377,0.637,0.377,1.127l-0.023,0.427H215.054z"/>
	<path fill="#FFFFFF" d="M227.758,50.507c0.435-0.364,0.773-0.923,1.013-1.676c0.24-0.754,0.36-1.532,0.36-2.335
		c0-0.653-0.171-1.167-0.513-1.54c-0.342-0.374-0.819-0.561-1.432-0.561c-0.465,0-0.855,0.085-1.172,0.255
		c-0.316,0.17-0.617,0.443-0.902,0.819h-0.024c0.016-0.091,0.036-0.246,0.062-0.466c0.025-0.22,0.038-0.383,0.038-0.49h-0.979
		c-0.047,0.435-0.115,0.873-0.205,1.312l-1.458,7.632h1.048c0.367-1.915,0.567-2.979,0.601-3.193c0.033-0.214,0.05-0.342,0.05-0.386
		h0.029c0.125,0.372,0.339,0.661,0.642,0.866c0.303,0.206,0.694,0.309,1.174,0.309C226.767,51.053,227.322,50.872,227.758,50.507z
		 M227.755,45.587c0.183,0.246,0.275,0.611,0.275,1.098c0,0.486-0.08,1.055-0.241,1.706c-0.16,0.651-0.38,1.125-0.662,1.424
		s-0.664,0.448-1.148,0.448c-0.441,0-0.786-0.138-1.034-0.413s-0.372-0.66-0.372-1.154c0-0.384,0.055-0.818,0.164-1.303
		c0.109-0.484,0.26-0.888,0.451-1.21c0.191-0.323,0.425-0.564,0.7-0.724c0.275-0.16,0.606-0.24,0.993-0.24
		C227.28,45.22,227.572,45.342,227.755,45.587z"/>
	<path fill="#FFFFFF" d="M238.365,47.95c0.094-0.396,0.141-0.801,0.141-1.217c0-0.744-0.223-1.319-0.668-1.727
		c-0.445-0.408-1.068-0.611-1.869-0.611c-0.629,0-1.195,0.175-1.699,0.525c-0.504,0.35-0.895,0.841-1.172,1.472
		c-0.277,0.631-0.416,1.344-0.416,2.14c0,0.799,0.218,1.419,0.653,1.86c0.436,0.441,1.046,0.662,1.831,0.662
		c0.625,0,1.157-0.119,1.597-0.356s0.801-0.615,1.086-1.133l-0.809-0.374c-0.171,0.328-0.412,0.587-0.72,0.777
		s-0.652,0.285-1.031,0.285c-0.524,0-0.915-0.141-1.175-0.421c-0.26-0.281-0.39-0.685-0.39-1.211
		c0.012-0.309,0.029-0.532,0.053-0.67H238.365z M233.918,47.13c0.145-0.621,0.395-1.101,0.753-1.439
		c0.357-0.338,0.797-0.507,1.321-0.507c0.473,0,0.835,0.13,1.086,0.392c0.252,0.261,0.378,0.637,0.378,1.127l-0.023,0.427H233.918z"
		/>
	<path fill="#FFFFFF" d="M247.056,44.846c-0.373-0.261-0.903-0.392-1.59-0.392c-0.817,0-1.452,0.221-1.907,0.665
		c-0.455,0.443-0.769,1.118-0.94,2.024l-0.679,3.667c0.8,0.162,1.64,0.243,2.519,0.243c0.91,0,1.614-0.176,2.112-0.528
		c0.498-0.353,0.748-0.861,0.748-1.525c0-0.368-0.119-0.676-0.358-0.923c-0.238-0.247-0.556-0.403-0.955-0.466l0.006-0.042
		c0.512-0.087,0.907-0.272,1.187-0.555c0.279-0.283,0.419-0.638,0.419-1.065C247.616,45.475,247.429,45.107,247.056,44.846z
		 M243.526,47.997h1.166c0.519,0,0.9,0.093,1.142,0.279c0.242,0.186,0.363,0.437,0.363,0.754c0,0.427-0.152,0.74-0.457,0.938
		s-0.721,0.297-1.248,0.297c-0.453,0-0.914-0.04-1.382-0.119L243.526,47.997z M243.673,47.226l0.047-0.244
		c0.109-0.569,0.297-1.001,0.562-1.293c0.266-0.293,0.643-0.439,1.13-0.439c0.359,0,0.629,0.075,0.809,0.226
		s0.269,0.354,0.269,0.611c0,0.76-0.554,1.14-1.664,1.14H243.673z"/>
	<path fill="#FFFFFF" d="M255.691,47.665c-0.432-0.289-1.071-0.433-1.918-0.433h-1.078l0.521-2.718h-1.054l-1.207,6.297
		c0.8,0.162,1.642,0.243,2.524,0.243c0.942,0,1.653-0.18,2.136-0.54c0.482-0.36,0.724-0.882,0.724-1.566
		C256.339,48.381,256.123,47.954,255.691,47.665z M252.548,47.997h1.166c0.516,0,0.896,0.085,1.14,0.255
		c0.244,0.17,0.366,0.43,0.366,0.778c0,0.427-0.152,0.74-0.457,0.938c-0.304,0.198-0.72,0.297-1.248,0.297
		c-0.454,0-0.914-0.04-1.383-0.119L252.548,47.997z"/>
	<path fill="#FFFFFF" d="M265.888,47.95c0.094-0.396,0.141-0.801,0.141-1.217c0-0.744-0.223-1.319-0.668-1.727
		c-0.445-0.408-1.068-0.611-1.868-0.611c-0.629,0-1.195,0.175-1.699,0.525s-0.895,0.841-1.172,1.472
		c-0.277,0.631-0.416,1.344-0.416,2.14c0,0.799,0.218,1.419,0.653,1.86c0.436,0.441,1.046,0.662,1.831,0.662
		c0.625,0,1.157-0.119,1.597-0.356c0.439-0.237,0.801-0.615,1.086-1.133l-0.809-0.374c-0.172,0.328-0.412,0.587-0.721,0.777
		s-0.652,0.285-1.031,0.285c-0.523,0-0.915-0.141-1.174-0.421c-0.26-0.281-0.39-0.685-0.39-1.211
		c0.012-0.309,0.029-0.532,0.053-0.67H265.888z M261.441,47.13c0.145-0.621,0.396-1.101,0.753-1.439
		c0.357-0.338,0.798-0.507,1.321-0.507c0.472,0,0.834,0.13,1.086,0.392c0.251,0.261,0.378,0.637,0.378,1.127l-0.023,0.427H261.441z"
		/>
	<path fill="#FFFFFF" d="M274.579,44.846c-0.373-0.261-0.903-0.392-1.59-0.392c-0.816,0-1.452,0.221-1.907,0.665
		c-0.455,0.443-0.769,1.118-0.94,2.024l-0.68,3.667c0.8,0.162,1.64,0.243,2.519,0.243c0.91,0,1.614-0.176,2.112-0.528
		c0.498-0.353,0.747-0.861,0.747-1.525c0-0.368-0.12-0.676-0.357-0.923c-0.238-0.247-0.557-0.403-0.955-0.466l0.006-0.042
		c0.512-0.087,0.907-0.272,1.187-0.555c0.279-0.283,0.419-0.638,0.419-1.065C275.139,45.475,274.952,45.107,274.579,44.846z
		 M271.05,47.997h1.166c0.519,0,0.9,0.093,1.142,0.279s0.363,0.437,0.363,0.754c0,0.427-0.152,0.74-0.457,0.938
		s-0.721,0.297-1.248,0.297c-0.453,0-0.914-0.04-1.383-0.119L271.05,47.997z M271.196,47.226l0.047-0.244
		c0.109-0.569,0.297-1.001,0.562-1.293c0.265-0.293,0.643-0.439,1.131-0.439c0.359,0,0.628,0.075,0.808,0.226s0.27,0.354,0.27,0.611
		c0,0.76-0.555,1.14-1.664,1.14H271.196z"/>
	<g>
		<path fill="#D13A34" d="M23.437,14.643c-1.864,0.461-3.818,0.461-5.682,0C8.041,12.239-0.093,13.161,0.001,31.479
			c0.048,9.383,8.835,21.55,18.071,19.469c1.655-0.373,3.391-0.373,5.047,0c9.235,2.081,18.023-10.086,18.07-19.469
			C41.285,13.163,33.152,12.239,23.437,14.643z"/>
		<path fill="#F15D59" d="M4.517,26.799c-0.499,0-0.904-0.404-0.904-0.902c0-4.98,3.647-9.031,8.129-9.031
			c0.5,0,0.902,0.404,0.902,0.903s-0.403,0.903-0.902,0.903c-3.485,0-6.322,3.241-6.322,7.226
			C5.42,26.395,5.015,26.799,4.517,26.799z"/>
		<path fill="#4D322D" d="M20.531,18.062c-0.485,0-0.886-0.386-0.901-0.875c-0.121-3.822-1.59-8.62-5.348-10.624
			c-0.44-0.234-0.607-0.781-0.372-1.223c0.236-0.439,0.78-0.606,1.223-0.372c4.438,2.366,6.166,7.833,6.303,12.16
			c0.017,0.499-0.375,0.917-0.874,0.932C20.55,18.062,20.541,18.062,20.531,18.062z"/>
		<path fill="#9A4630" d="M20.45,21.306c-1.517,0-2.945-0.591-4.019-1.667c-0.352-0.352-0.352-0.923,0-1.276
			c0.354-0.354,0.924-0.354,1.277,0c0.733,0.733,1.708,1.137,2.742,1.137c1.035,0,2.009-0.404,2.741-1.137
			c0.353-0.354,0.924-0.354,1.277,0c0.353,0.353,0.353,0.923,0,1.276C23.395,20.715,21.968,21.306,20.45,21.306z"/>
		<path fill="#659C41" d="M19.665,11.777l0.55-3.69c0.581-3.897,3.64-6.957,7.537-7.538L31.441,0l-0.55,3.69
			c-0.581,3.897-3.64,6.958-7.537,7.537L19.665,11.777z"/>
	</g>
</g>
</svg>
