<?xml version="1.0" encoding="utf-8"?>
<!-- Generator: Adobe Illustrator 16.0.4, SVG Export Plug-In . SVG Version: 6.00 Build 0)  -->
<!DOCTYPE svg PUBLIC "-//W3C//DTD SVG 1.1//EN" "http://www.w3.org/Graphics/SVG/1.1/DTD/svg11.dtd">
<svg version="1.1" id="Layer_1" xmlns="http://www.w3.org/2000/svg" xmlns:xlink="http://www.w3.org/1999/xlink" x="0px" y="0px"
	 width="16.001px" height="15.999px" viewBox="0 0 16.001 15.999" enable-background="new 0 0 16.001 15.999" xml:space="preserve">
<path fill="#FFFFFF" d="M6.137,9.893c1.435,1.427,3.097,2.791,3.749,2.132c0.934-0.943,1.508-1.762,3.581-0.106
	c2.072,1.656,0.489,2.771-0.415,3.684c-1.044,1.055-4.953,0.074-8.828-3.778C0.35,7.97-0.658,4.06,0.386,3.007
	C1.291,2.093,2.392,0.5,4.06,2.563c1.668,2.064,0.854,2.646-0.08,3.589C3.328,6.81,4.701,8.465,6.137,9.893z M8.218,3.082
	c0,0-0.433-0.067-0.736,0.236C7.17,3.631,7.156,4.169,7.485,4.499c0.194,0.194,0.468,0.236,0.468,0.236
	c0.534,0.1,1.339,0.27,2.196,1.128c0.856,0.859,1.026,1.665,1.126,2.201c0,0,0.042,0.274,0.236,0.469
	c0.329,0.329,0.866,0.316,1.178,0.003c0.303-0.303,0.235-0.738,0.235-0.738c-0.169-1.084-0.694-2.217-1.594-3.119
	C10.43,3.777,9.3,3.252,8.218,3.082z M12.279,3.729c1.57,1.573,2.24,3.359,2.022,4.807c0,0-0.076,0.458,0.223,0.757
	c0.336,0.337,0.869,0.317,1.184,0.002c0.202-0.202,0.247-0.532,0.247-0.532c0.18-1.25-0.047-3.765-2.494-6.217
	c-2.446-2.451-4.957-2.677-6.205-2.497c0,0-0.329,0.044-0.531,0.247C6.41,0.61,6.391,1.143,6.727,1.479
	c0.299,0.3,0.756,0.223,0.756,0.223C8.927,1.485,10.709,2.156,12.279,3.729z"/>
</svg>
