<?xml version="1.0" encoding="utf-8"?>
<!-- Generator: Adobe Illustrator 16.0.4, SVG Export Plug-In . SVG Version: 6.00 Build 0)  -->
<!DOCTYPE svg PUBLIC "-//W3C//DTD SVG 1.1//EN" "http://www.w3.org/Graphics/SVG/1.1/DTD/svg11.dtd">
<svg version="1.1" id="Layer_1" xmlns="http://www.w3.org/2000/svg" xmlns:xlink="http://www.w3.org/1999/xlink" x="0px" y="0px"
	 width="47.587px" height="25.896px" viewBox="0 0 47.587 25.896" enable-background="new 0 0 47.587 25.896" xml:space="preserve">
<g>
	<path fill="#FFFFFF" d="M45.367,20.588c-0.223-0.418-0.723-0.001-0.992-0.714c-0.359-0.948,0.295-0.462,0.418-0.812
		c0.056-0.158-2.94-2.338-2.899-2.383c0.188-0.208,0.308,0.811,0.264,0.757c0.095,0.117,0.942,1.08,0.943,1.083
		c0.075,0.333,0.686,1.203,0.951,1.366c0.162,0.1,0.981,1.377,0.979,1.322C45.005,20.66,45.416,20.679,45.367,20.588
		C45.341,20.539,45.39,20.631,45.367,20.588z"/>
	<path fill="#FFFFFF" d="M47.269,14.408c0.842,0.458-0.248-1.275-0.274-1.334c-0.008-0.019,0.351-0.475,0.337-0.502
		c-0.102-0.225-0.405-0.327-0.507-0.634c-0.103-0.306,0.292-0.287,0.163-0.587c-0.083-0.196-0.479-0.258-0.616-0.504
		c-0.163-0.292,0.38-0.455,0.012-0.609c-0.18-0.075-0.589,0.068-0.619-0.268c0.016,0.203-0.623-0.44-0.809-0.571
		c-0.526-0.366-0.221-0.613-0.064-0.862c0,0.001-0.157-0.62-0.05-0.573C44.923,8,44.989,8.139,45.032,8.159
		c-0.7-0.314,0.681-1.167,0.682-1.168c0.03-0.029-0.607-2.622-0.712-2.732c0.095,0.099,0.551-0.352,0.463-0.499
		c-0.042-0.069-0.494-0.337-0.649-0.145c0.172-0.212-1.159,0.278-1.11,0.277c0.092-0.461-0.051,0.062-0.104-0.166
		c-0.025-0.107,0.677-0.418,0.376-0.954C43.79,2.44,43.374,2.706,43.26,2.412c0.041,0.106,0.141-0.288,0.078-0.232
		c0.081-0.07,0.475,0.386,0.596,0.086c0.217-0.534,0.11-0.456,0.485-0.403c0.255,0.036,0.74-0.818,0.69-0.886
		c0.021,0.028-0.682-0.173-0.811-0.185C44.562,0.814,44.253-0.022,44.177,0c-0.182,0.056-0.771,0.393-0.791,0.597
		c0.438,0.018-0.382,0.313-0.121,0.434c0.025,0.012,0.424-0.073,0.444-0.032c-0.093-0.186-1.275,0.467-1.217,0.469
		c-0.994-0.037-1.855,1.332-2.479,2.013c0.25-0.273,0.862,0.983,0.558,0.683c-0.368-0.362-1.051,0.659-1.222,0.924
		c-0.033,0.051-0.182,0.499-0.181,0.484c-0.578,0.202-0.759-0.566-1.373,0.021C37.32,6.045,37.09,6.618,36.308,6.49
		c-0.151-0.025,0.184-0.193,0.092-0.278c-0.549-0.508-0.689,0.864-0.696,0.86c-0.169-0.098,0.043-0.506-0.019-0.492
		c-0.048,0.011-0.264,0.407-0.342,0.282c-0.085-0.134,0.264-0.281,0.295-0.361c-0.076-0.005-1.127,0.44-1.127,0.405
		c0,0.001,0.102,0.579,0.012,0.606c0.04-0.082,0.101-0.109,0.182-0.082c0.038,0.088,0.124,0.297,0.149,0.398
		c-0.043-0.167-0.541,0.483-0.146,0.276c-0.21,0.122-0.27,0.061-0.55,0.036c0.278,0.026-1.018,0.452-0.728,0.216
		c-0.084,0.068,0.161,0.692,0.157,0.794c-0.004,0.104-0.673-0.142-0.689-0.466c-0.15-0.051-0.229,0.091-0.217,0.095
		c-0.059-0.029-0.104-0.073-0.136-0.132c-0.015-0.326-0.456-1.433-1.229-0.622c-0.162,0.171-0.065,0.954-0.811,0.589
		c-0.155-0.076-1.028-0.438-0.907,0.158c0.03,0.153-0.327-0.432-0.271-0.424c0.073,0.011-0.351,0.445-0.313,0.035
		c-0.057,0.007-0.29,0.102-0.319,0.153c-0.091,0.16,0.234-0.005,0.271,0.048c0.111,0.162-0.4,0.268-0.368,0.159
		c-0.042,0.137-0.431,0.649-0.658,0.614c-0.024-0.078,0.783-1.15,0.752-1.138c0.674-0.262,0.293-0.626,0.322-0.974
		c-0.01,0.115,0.479-0.228,0.071-0.335c-0.118-0.031-0.145,0.05-0.308-0.203c-0.208-0.329-0.666,0.177-0.776,0.147
		c-0.037-0.093-0.015-0.176,0.062-0.249c0.016-0.062-0.42-0.047-0.443-0.1c0.033-0.086,0.092-0.147,0.178-0.186
		c0.277-0.918-1.33,0.946-0.612,0.714c-0.125,0.041-0.327-0.208-0.47-0.105c-0.108,0.079,0.179,0.184,0.119,0.263
		c-0.306,0.402-1.593-0.142-2.23,0.458c-0.126,0.117,0.11,0.097-0.247,0.126c0.007-0.074-0.107,1.219-0.166,0.789
		c-0.034-0.26-1.578-0.416-1.015,0.862c0.098,0.222-0.078,1.659-0.082,1.659c-0.332-0.02-0.112-0.969-0.006-0.978
		c0.01-0.001-0.259,0.232-0.214,0.061c0.187-0.692,0.23-0.141,0-0.692c-0.421-1.003-0.419-0.26-0.592-0.207
		c-0.046,0.015-0.328-0.391-0.42-0.135c-0.102,0.281,0.481,0.544,0.401,0.732c-0.021,0.049-0.529-0.364-0.581-0.427
		c-0.207-0.25,0.34-0.691,0.253-0.994c-0.373-0.062-1.251,1.771-1.207,2.126c0.034,0.271,1.106,0.112,0.772,0.819
		c-0.069,0.146-0.114,0.854,0.112,0.887c-0.154-0.226-0.581-0.452-0.363-0.74c0.458-0.603-0.601-0.947-0.542-0.308
		c0.131,1.395-1.962,0.506-1.689,0.321c0.028-0.02,0.375,0.319,0.474,0.325c0.163,0.01,0.472-0.413,0.595-0.463
		c0.557-0.222,0.287-0.956,0.626-1.4c0.197-0.257,0.735-2.44,0.197-2.042c-0.538,0.396-0.97,0.719-1.189,1.208
		c-0.057,0.125-0.276,1.461-0.436,1.353c-0.233-0.158-0.556-1.211-0.775-1.492c-0.318-0.401-1.004,0.435-1.032,0.333
		c-0.03-0.112,0.295-0.264,0.192-0.37c-0.132-0.139-1.064-0.188-1.146-0.142c0.046-0.027-0.257-0.267-0.19-0.314
		c0.017-0.012,0.391-0.252,0.406-0.223c-0.111-0.214-0.488-0.009-0.534,0.001c-0.03,0.006-2.054-0.455-1.944-0.312
		c-0.427-0.556,1.544-0.498,0.456-1.301c0.002,0.002-0.965,1.163-1.162,1.185c-0.137-0.435,0.01-0.352-0.481-0.516
		c-0.381-0.126-1.36,0.532-1.27-0.127c0.058-0.452-0.262-0.606-0.3-0.039c0.522,0.101-0.721,0.417-0.388-0.125
		c0.092-0.149,1.094-2.009,1.117-2.005c0.416,0.086-0.275,2.537,1.296,1.92c0.913-0.367-0.085-2.37,0.023-2.789
		c-0.026,0.098-0.024-0.159-0.01-0.279c0.003-0.025-0.496-0.352-0.645-0.358c-0.27-0.01-0.534,0.235-0.563,0.48
		c-0.046,0.393-0.57,0.25-0.821,0.439c-0.202,0.152-0.984,0.958-1.121,0.94c-0.292-0.034-0.405,0.781-0.589,0.902
		C9.307,6.676,8.385,6.153,7.832,6.178c0.06,0.046,0.104,0.816,0.01,0.774C7.253,6.691,7.765,6.598,7.205,6.7
		C6.84,6.767,6.762,6.629,6.359,7.113C6.255,7.09,6.25,7.021,6.342,6.908C5.431,6.895,5.405,7.917,5.543,8.52
		c0.076,0.328-1.01,0.588-0.723,1.176c0.199,0.409-0.734-0.195-0.976,0.299c-0.174,0.359,0.791,0.614,0.422,0.937
		c-0.016,0.014-0.421,0.459-0.437,0.325c0.104,0.888,0.151,1.292,0.488,2.253c0.417,0.86-1.571,0.918-1.571,0.748
		c0.125,0.091,0.183,0.209,0.173,0.354c-0.039,0.049-0.683-0.27-0.627-0.345c-0.123,0.168,0.014,0.313-0.076,0.5
		c-0.02-0.007-1.098-0.326-0.967-0.371c-0.423,0.143,0.186,2.5,0.452,2.771c0.766,0.776,0.677,3.133,1.688,3.167
		c0.103-0.76,0.054-0.854,0.569-1.255c0.075-0.059-0.194-0.022-0.208-0.038c-0.198-0.224,0.583-0.69,0.705-0.775
		c0.258-0.18,1.198,0.314,1.305,0.094c0.157-0.323-0.095-0.967-0.172-1.367c-0.086-0.458,1.226-1.676,1.357-0.588
		c-0.012-0.101,1.461-0.562,1.618-0.127c-0.043-0.121,1.046,1.53,0.688,1.484c0.061-0.061,0.108-0.131,0.143-0.21
		c-0.398,0.208,1.158,0.762,1.25,0.832c0.139,0.104,0.414,0.654,0.617,0.845c0.667,0.629,0.351-0.882,0.333-0.87
		c0.138,0.035,0.28,0.05,0.424,0.044c0.212-0.138-0.26-0.344,0.196-0.338c0.134,0.001,0.39,0.234,0.39,0.234
		c-0.008,0.004-0.231-0.887,0.079-0.821c0.793,0.17,1.527,0.769,2.478,0.797c0.352,0.009,0.583,0.188,0.872,0.218
		c0.448,0.043-0.186,1.223,0.409,0.82c0.115-0.077,0.057,0.313,0.021,0.273c-0.005-0.005,0.438,0.09,0.459,0.177
		c0.021,0.089-0.242,0.095-0.245,0.216c-0.011,0.337,1.305-0.069,1.561-0.034c-0.133,0.497,0,0.4,0.062,1.055
		c0.033,0.343,0.045,1.428,0.221,1.672c0.113,0.159,0.322-0.324,0.343-0.326c0.179-0.015,0.272,0.479,0.529,0.537
		c0.263,0.06,0.33-0.195,0.604-0.008c0.374,0.254,0.284,1.239,0.893,1.158c0.159-0.02,1.271,0.779,1.48,0.131
		c0.049-0.153,1.368-0.564,1.396-0.456c-0.017,0.057-0.03,0.116-0.038,0.175c0.008,0.021,1.933,0.719,2.124,0.515
		c0.259-0.274,0.332-0.904,0.487-1.321c0.042-0.114,1.202,0.203,1.381,0.369c0.211,0.197,0.286,1.044,0.841,0.746
		c0.696-0.365,0.94,0.101,1.495,0.058c0.094-0.008,1.097,0.244,1.256,0.313c0.58,0.248,1.064-0.798,1.482-0.973
		c0.245-0.102,1.546,0.323,1.684,0.133c0.228-0.316,0.827-1.794,0.437-2.209c-0.435-0.462,0.424-0.868,0.86-1.015
		c0.522-0.174,0.997,0.215,1.388,0.409c0.49,0.241,1.027,1.779,1.795,1.198c0.418-0.316,0.794,0.301,0.967,0.534
		c0.485,0.649,1.055-1.08,1.429-1.112c0.349-0.03,0.228,2.347,0.311,2.429c-0.741-0.716-0.247,1.985-0.426,1.88
		c0.462,0.27,0.501-0.469,0.692-0.663c0.063-0.065,0.672,0.108,0.96-0.338c0.711-1.103,0.589-3.469,0.375-4.72
		c-0.045-0.26-0.809-2.084-0.881-2.125c-0.177-0.1-0.684-0.454-0.838-0.596c-0.602-0.557-0.538,0.423-0.559,0.474
		c0.065-0.16-0.376,0.329-0.413,0.296c-0.029-0.025-0.019-0.567-0.192-0.445c-0.274,0.192,0.142,0.225,0.03,0.354
		c0.145-0.167-0.958-0.382-0.961-0.256c0.015-0.5,0.434-0.927,0.361-1.489c-0.093-0.714,0.295-3.353,1.171-2.955
		c-0.255-0.116,0.693-0.652,0.734-0.718c-0.624-0.387,0.807-0.694,0.806-0.706c-0.031,0.112-0.103,0.19-0.212,0.233
		c-0.001,0,0.666-0.594,0.884-0.806c-0.354,0.344-0.693-0.861-0.702-1.221c-0.007-0.242,0.127-1.378,0.44-1.305
		c0.063,0.015,0.522,0.666,0.607,0.522c0.012-0.02-0.033-1.357,0.092-1.116c-0.115-0.219-0.938-0.576-0.16-0.827
		c0.193-0.062,0.534,1.697,0.592,1.804c0.264,0.477,0.208,2.242,0.375,2.342c0.168,0.101,0.319,0.881,0.457,1.064
		c0.246,0.32,0.661,0.438,0.928,0.699C46.203,13.714,46.816,14.162,47.269,14.408z M10.6,6.905c0.03-0.055,0.118-0.234,0.21-0.167
		c0.019,0.014-0.104,0.385-0.124,0.394C10.603,7.174,10.583,6.934,10.6,6.905C10.616,6.875,10.582,6.936,10.6,6.905z M9.604,7.869
		C9.563,7.737,9.593,7.367,9.798,7.333c0.02,0.144,0.223,0.047,0.261-0.031C9.997,7.383,9.943,7.469,9.896,7.56
		c0.304,0.115,0.284-0.436,0.339-0.405c0.341,0.187-0.339,0.788-0.427,0.938C9.544,8.556,9.284,7.819,9.351,7.827
		C9.256,7.815,9.743,8.309,9.604,7.869C9.578,7.784,9.624,7.931,9.604,7.869z M8.193,7.144c0.131-0.184,0.732-1.161,0.871-0.368
		C9.229,7.696,7.975,7.445,8.193,7.144C8.22,7.106,8.173,7.172,8.193,7.144z M30.057,22.204c-0.066,0.256-1.357,1.53-1.669,1.006
		c0.231,0.389,2.492-2.667,2.018-2.864C30.992,20.588,30.116,21.982,30.057,22.204C30.037,22.281,30.071,22.151,30.057,22.204z"/>
	<path fill="#FFFFFF" d="M25.92,4.379c0.63,0.165,0.683-0.625,0.444-0.62C26.234,3.762,25.76,4.338,25.92,4.379
		C25.932,4.382,25.902,4.375,25.92,4.379z"/>
	<path fill="#FFFFFF" d="M26.521,4.82c-0.024-0.044,0.1-0.286-0.039-0.285c-0.93,0.005-0.127,0.67-0.02,0.877
		c0.089,0.17,0.542-0.029,0.303-0.271c0.03,0.03,0.122-0.297,0.119-0.317C26.857,4.498,26.502,4.786,26.521,4.82
		C26.511,4.803,26.54,4.855,26.521,4.82z"/>
	<path fill="#FFFFFF" d="M26.825,5.833c-0.156,0.185,0.667-0.088,0.681-0.091c0.359-0.056,0.051-0.599-0.151-0.5
		c0.051-0.025-0.1-0.246-0.276-0.172C27.058,5.079,26.895,5.75,26.825,5.833C26.798,5.865,26.87,5.78,26.825,5.833z"/>
	<path fill="#FFFFFF" d="M17.367,6.791c0.154,0.02,0.224,1.391,0.603,1.087c0.124-0.099-0.01-1.274,0.373-1.179
		c0.496,0.124,0.325-0.804-0.318-0.603C18.029,6.095,17.305,6.784,17.367,6.791C17.392,6.794,17.299,6.783,17.367,6.791z"/>
	<path fill="#FFFFFF" d="M18.683,6.186c0.252,0.28,1.369-0.244,1.967-0.357c0.253-0.049,0.698,0.003,0.992,0.005
		c0.363,0.002,0.331-0.635-0.068-0.438c-0.166,0.083-0.529,0.144-0.7,0.006c-0.192-0.154-1.352-0.153-1.452-0.045
		c0.003-0.003-0.029,0.273-0.047,0.297c-0.031,0.041-0.735,0.11-0.772,0.186C18.595,5.853,18.643,6.143,18.683,6.186
		C18.699,6.205,18.662,6.162,18.683,6.186z"/>
	<path fill="#FFFFFF" d="M1.263,14.275c-0.01,0.019-0.492-0.807-0.099-0.878c-0.231,0.041-0.121,0.494-0.333,0.562
		c0.825-0.262-0.476-1.588-0.688-1.192c-0.085,0.159-0.275,0.904,0.005,1.066C0.392,13.975,1.134,14.514,1.263,14.275
		C1.302,14.203,1.239,14.32,1.263,14.275z"/>
</g>
</svg>
