<?xml version="1.0" encoding="utf-8"?>
<!-- Generator: Adobe Illustrator 16.0.4, SVG Export Plug-In . SVG Version: 6.00 Build 0)  -->
<!DOCTYPE svg PUBLIC "-//W3C//DTD SVG 1.1//EN" "http://www.w3.org/Graphics/SVG/1.1/DTD/svg11.dtd">
<svg version="1.1" id="Layer_1" xmlns="http://www.w3.org/2000/svg" xmlns:xlink="http://www.w3.org/1999/xlink" x="0px" y="0px"
	 width="27.003px" height="29.99px" viewBox="0 0 27.003 29.99" enable-background="new 0 0 27.003 29.99" xml:space="preserve">
<path fill="#FFFFFF" d="M7.689,20.192c0,0-0.001,0-0.002-0.001V2.488c0-1.332-1.05-2.422-2.348-2.422H4.901
	c-1.297,0-2.346,1.09-2.346,2.422v17.702c-0.001,0.001-0.002,0.002-0.004,0.003C1.025,21.102,0,22.796,0,24.737
	c0,2.901,2.293,5.253,5.12,5.253c2.828,0,5.12-2.352,5.12-5.253C10.241,22.797,9.215,21.102,7.689,20.192z M5.12,27.332
	c-1.397,0-2.529-1.162-2.529-2.594c0-1.434,1.133-2.596,2.529-2.596s2.53,1.163,2.53,2.596C7.65,26.17,6.518,27.332,5.12,27.332z"/>
<path fill="#FFFFFF" d="M26.04,13.372h-5.763l3.337-3.43c0.375-0.387,0.375-1.015,0-1.402c-0.377-0.386-0.986-0.381-1.363,0.006
	l-4.698,4.825H9.834c-0.532,0-0.963,0.427-0.963,0.974c0,0.544,0.432,0.974,0.963,0.974h7.69l4.726,4.855
	c0.188,0.192,0.434,0.292,0.681,0.292c0.247,0,0.494-0.095,0.682-0.288c0.375-0.386,0.375-1.018,0-1.404l-3.365-3.457h5.791
	c0.532,0,0.964-0.428,0.964-0.973C27.003,13.799,26.571,13.372,26.04,13.372z"/>
<path fill="#FFFFFF" d="M9.834,10.648c0.247,0,0.494-0.094,0.682-0.288l2.28-2.336h5.142c0.531,0,0.963-0.45,0.963-0.995
	c0-0.546-0.432-0.995-0.963-0.995h-3.215l0.788-0.805c0.376-0.386,0.376-1.008,0-1.395c-0.376-0.386-0.982-0.385-1.357,0.001
	l-0.85,0.877V0.989c0-0.546-0.438-0.989-0.97-0.989c-0.531,0-0.97,0.443-0.97,0.989v5.686c0,0.005,0.002,0.011,0.002,0.015
	L9.152,8.962c-0.376,0.386-0.376,1.011,0,1.396C9.341,10.552,9.588,10.648,9.834,10.648z"/>
<path fill="#FFFFFF" d="M9.834,17.765c0.247,0,0.494,0.095,0.682,0.289l2.28,2.336h5.142c0.531,0,0.963,0.449,0.963,0.995
	c0,0.545-0.432,0.994-0.963,0.994h-3.215l0.788,0.805c0.376,0.386,0.376,1.008,0,1.394c-0.376,0.386-0.982,0.385-1.357,0
	L13.305,23.7v3.725c0,0.546-0.438,0.989-0.97,0.989c-0.531,0-0.969-0.442-0.969-0.989v-5.686c0-0.004,0.002-0.01,0.002-0.014
	l-2.214-2.272c-0.376-0.386-0.375-1.011,0.001-1.397C9.341,17.861,9.588,17.765,9.834,17.765z"/>
</svg>
